<?xml version="1.0" encoding="UTF-8"?>
<svg id="katman_1" xmlns="http://www.w3.org/2000/svg" version="1.1" viewBox="0 0 54.4 54.4">
  <!-- Generator: Adobe Illustrator 30.2.1, SVG Export Plug-In . SVG Version: 2.1.1 Build 1)  -->
  <defs>
    <style>
      .st0 {
        fill: #fa8112;
      }
    </style>
  </defs>
  <circle class="st0" cx="20.5" cy="33.8" r="4.7"/>
  <path class="st0" d="M43.2,1.2H11.2C5.7,1.2,1.2,5.7,1.2,11.2v31.9c0,5.5,4.5,10,10,10h31.9c5.5,0,10-4.5,10-10V11.2c0-5.5-4.5-10-10-10ZM42.2,20.2c-.6.9-1.8,1.2-2.7.7l-9.3-5.6c-.3-.2-.5,0-.7,0-.1,0-.3.2-.3.6v19.2c0,.4-.2.8-.4,1.1-1.1,3.6-4.3,6.2-8.2,6.2s-8.7-3.9-8.7-8.7,3.9-8.7,8.7-8.7,3.3.5,4.7,1.4v-10.7c0-1.7.9-3.2,2.4-4,1.5-.8,3.2-.8,4.7,0l9.3,5.6c.9.6,1.2,1.8.7,2.7Z"/>
</svg>