<?xml version="1.0" encoding="UTF-8"?>
<svg id="katman_1" xmlns="http://www.w3.org/2000/svg" version="1.1" viewBox="0 0 73.7 73.7">
  <!-- Generator: Adobe Illustrator 30.2.1, SVG Export Plug-In . SVG Version: 2.1.1 Build 1)  -->
  <defs>
    <style>
      .st0 {
        fill: #fa8112;
      }
    </style>
  </defs>
  <path class="st0" d="M70.1,35.6c-1.1-1.9-3-3-5.2-3H23.1c-3.4,0-6.5,1.8-8.2,4.8L3.1,58c-.5.8-.4,1.8,0,2.6.5.8,1.3,1.3,2.2,1.3h49.7c2.2,0,4.2-1.2,5.2-3l9.8-17.2c1.1-1.9,1.1-4.1,0-6h0Z"/>
  <path class="st0" d="M23.1,27.4h39.9c-.4-4.8-4.5-8.6-9.4-8.6h-19.3c-.2,0-.5,0-.6-.2l-3.9-3.9c-1.8-1.8-4.2-2.8-6.7-2.8h-10.9c-5.2,0-9.5,4.2-9.5,9.5v26.8l7.6-13.4c2.6-4.6,7.5-7.4,12.7-7.4h0Z"/>
</svg>