<?xml version="1.0" encoding="UTF-8"?>
<svg id="katman_1" data-name="katman 1" xmlns="http://www.w3.org/2000/svg" viewBox="0 0 250 250">
  <defs>
    <style>
      .cls-1 {
        fill: #faf3e1;
      }

      .cls-2 {
        fill: #222;
      }
    </style>
  </defs>
  <rect class="cls-2" x="26.17" y="18.83" width="197.67" height="212.34" rx="17.37" ry="17.37"/>
  <g>
    <path class="cls-1" d="M118.62,81.92v-45.64c-7.75-.37-15.56.45-23.11,2.37v43.27c3.63-1.3,7.48-2.13,11.55-2.13s7.92.83,11.55,2.13Z"/>
    <path class="cls-1" d="M107.06,135.24c11.46,0,20.8-9.33,20.8-20.8s-9.33-20.8-20.8-20.8-20.8,9.33-20.8,20.8,9.33,20.8,20.8,20.8Z"/>
    <path class="cls-1" d="M208.83,130.85c-4.58-6.34-8.79-12.98-12.51-19.75-4.14-7.51-6.6-13.19-8.77-18.2-2.67-6.18-5.2-12.02-10.36-19.79-4.67-7.03-14.38-21.66-30.03-29.55-4.68-2.36-9.62-4.07-14.68-5.29v52.8c5.69,6.18,9.24,14.34,9.24,23.38,0,19.11-15.55,34.66-34.66,34.66s-34.66-15.55-34.66-34.66c0-9.03,3.56-17.2,9.24-23.38v-47.5c-10.13,4.71-19.23,11.54-26.23,20.36-22.22,28.04-21.85,72.19.79,92.64,4.14,3.74,9.05,6.69,14.6,8.76.99.37,1.61,1.2,1.61,2.16v39.39c0,3.83,3.1,6.93,6.93,6.93h64.7c3.83,0,6.93-3.1,6.93-6.93v-18.49c0-1.27,1.04-2.31,2.31-2.31h18.49c8.92,0,16.17-7.26,16.17-16.17v-18.49c0-1.27,1.04-2.31,2.31-2.31h9.18c4.38,0,8.33-2.42,10.32-6.32,1.98-3.86,1.62-8.44-.91-11.94Z"/>
  </g>
</svg>