<?xml version="1.0" encoding="UTF-8"?>
<svg id="katman_1" data-name="katman 1" xmlns="http://www.w3.org/2000/svg" viewBox="0 0 100 100">
  <defs>
    <style>
      .cls-1 {
        fill: #fa8112;
      }
    </style>
  </defs>
  <path class="cls-1" d="M46.04,60.84l22.27,12.62c3.67,2.09,8.05,2.06,11.71-.07,3.82-2.22,6.1-6.25,6.1-10.77v-25.23c0-4.52-2.28-8.54-6.1-10.77-1.85-1.07-3.88-1.61-5.91-1.61s-3.98.51-5.79,1.54l-22.27,12.62c-3.9,2.21-6.22,6.26-6.22,10.84s2.33,8.63,6.22,10.84Z"/>
  <path class="cls-1" d="M16.67,75c1.53,0,2.78-1.24,2.78-2.78V27.78c0-1.53-1.24-2.78-2.78-2.78s-2.78,1.24-2.78,2.78v44.44c0,1.53,1.24,2.78,2.78,2.78Z"/>
  <path class="cls-1" d="M31.48,75c1.53,0,2.78-1.24,2.78-2.78V27.78c0-1.53-1.24-2.78-2.78-2.78s-2.78,1.24-2.78,2.78v44.44c0,1.53,1.24,2.78,2.78,2.78Z"/>
</svg>