<?xml version="1.0" encoding="UTF-8"?>
<svg id="katman_1" xmlns="http://www.w3.org/2000/svg" version="1.1" viewBox="0 0 54.4 54.4">
  <!-- Generator: Adobe Illustrator 30.2.1, SVG Export Plug-In . SVG Version: 2.1.1 Build 1)  -->
  <defs>
    <style>
      .st0 {
        fill: #fa8112;
      }
    </style>
  </defs>
  <path class="st0" d="M16.9,6.1h20.5c1.1,0,1.9-.9,1.9-1.9s-.9-1.9-1.9-1.9h-20.5c-1.1,0-1.9.9-1.9,1.9s.9,1.9,1.9,1.9Z"/>
  <path class="st0" d="M47.7,9.9H6.7c-1.1,0-1.9.9-1.9,1.9s.9,1.9,1.9,1.9h.8l1.8,27.1c.4,6.4,5.8,11.4,12.2,11.4h11.6c6.4,0,11.7-5,12.2-11.4l1.8-27.1h.8c1.1,0,1.9-.9,1.9-1.9s-.9-1.9-1.9-1.9ZM21.4,40c0,1.1-.9,1.9-1.9,1.9s-1.9-.9-1.9-1.9v-18c0-1.1.9-1.9,1.9-1.9s1.9.9,1.9,1.9v18ZM29.1,40c0,1.1-.9,1.9-1.9,1.9s-1.9-.9-1.9-1.9v-18c0-1.1.9-1.9,1.9-1.9s1.9.9,1.9,1.9v18ZM36.8,40c0,1.1-.9,1.9-1.9,1.9s-1.9-.9-1.9-1.9v-18c0-1.1.9-1.9,1.9-1.9s1.9.9,1.9,1.9v18Z"/>
</svg>