<?xml version="1.0" encoding="UTF-8"?>
<svg id="katman_1" data-name="katman 1" xmlns="http://www.w3.org/2000/svg" viewBox="0 0 100 100">
  <defs>
    <style>
      .cls-1 {
        fill: #fa8112;
      }

      .cls-2 {
        fill: #f5e7c6;
      }
    </style>
  </defs>
  <g>
    <path class="cls-1" d="M66.12,31.63c0,.38-.08.75-.23,1.11-.15.35-.35.66-.62.92l9.8-.09-1.71.66-46.86.27c-4.2,0-7.62,3.42-7.62,7.63v15.74c0,4.2,3.42,7.62,7.62,7.62,1.59,0,2.88,1.29,2.88,2.88s-1.29,2.87-2.88,2.87c-7.37,0-13.37-6-13.37-13.37v-15.74c0-7.38,6-13.37,13.37-13.37l47.64.25-8.87.59c.27.26.48.57.62.93.15.35.23.72.23,1.1Z"/>
    <path class="cls-1" d="M73.74,29.01c-1.45,0-2.62,1.17-2.62,2.62s1.17,2.62,2.62,2.62c4.34,0,7.87,3.53,7.87,7.87v15.74c0,4.34-3.53,7.87-7.87,7.87h-30.4l3.39-3.39c1.03-1.02,1.03-2.69,0-3.71s-2.69-1.03-3.71,0l-7.87,7.87c-.1.1-.14.22-.22.33-.12.16-.26.32-.34.51-.13.32-.21.66-.21,1.02s.07.7.21,1.02c.08.19.22.34.34.51.08.11.13.24.22.33l7.87,7.87c.51.51,1.18.77,1.86.77s1.34-.26,1.86-.77c1.03-1.03,1.03-2.69,0-3.71l-3.39-3.39h30.41c7.23,0,13.12-5.89,13.12-13.12v-15.74c0-7.23-5.89-13.12-13.12-13.12Z"/>
  </g>
  <path class="cls-1" d="M71.71,34.15s-.05,0-.08,0l-7.42-.23-35.91.21h-.01c-1.37,0-2.49-1.11-2.5-2.49,0-1.38,1.1-2.51,2.49-2.51l36-.21,7.51.23c1.38.04,2.46,1.2,2.42,2.58-.04,1.35-1.15,2.42-2.5,2.42Z"/>
  <g>
    <polygon class="cls-1" points="49.04 50.21 49.04 19.61 43.76 22.84 43.76 15.15 49.74 11.16 56.24 11.16 56.24 50.21 49.04 50.21"/>
    <path class="cls-2" d="M55.24,12.16v37.05h-5.2v-31.39l-5.27,3.24v-5.38l5.27-3.52h5.2M57.24,10.16h-7.8l-.5.34-5.27,3.52-.89.59v10.02l3.05-1.87,2.23-1.37v29.82h9.2V10.16h0Z"/>
  </g>
</svg>