<?xml version="1.0" encoding="UTF-8"?>
<svg id="katman_1" data-name="katman 1" xmlns="http://www.w3.org/2000/svg" viewBox="0 0 100 100">
  <defs>
    <style>
      .cls-1 {
        fill: #fa8112;
      }
    </style>
  </defs>
  <path class="cls-1" d="M26.38,65.49c-4.2,0-7.62-3.42-7.62-7.62v-15.74c0-4.2,3.42-7.62,7.62-7.62h29.8l-2.97,2.97c-1.12,1.12-1.12,2.94,0,4.06.54.54,1.26.84,2.03.84s1.49-.3,2.03-.84l7.87-7.87c.26-.26.47-.58.62-.93.15-.35.22-.73.22-1.11s-.08-.75-.22-1.11c-.15-.35-.35-.66-.62-.93l-7.87-7.87c-1.12-1.12-2.94-1.12-4.06,0-.54.54-.84,1.26-.84,2.03s.3,1.49.84,2.03l2.97,2.97h-29.8c-7.37,0-13.37,6-13.37,13.37v15.74c0,7.37,6,13.37,13.37,13.37,1.58,0,2.87-1.29,2.87-2.87s-1.29-2.87-2.87-2.87Z"/>
  <path class="cls-1" d="M73.62,29.01c-1.45,0-2.62,1.17-2.62,2.62s1.17,2.62,2.62,2.62c4.34,0,7.87,3.53,7.87,7.87v15.74c0,4.34-3.53,7.87-7.87,7.87h-30.4l3.39-3.39c1.03-1.02,1.03-2.69,0-3.71s-2.69-1.03-3.71,0l-7.87,7.87c-.1.1-.14.22-.22.33-.12.16-.26.32-.34.51-.13.32-.21.66-.21,1.02s.07.7.21,1.02c.08.19.22.34.34.51.08.11.13.24.22.33l7.87,7.87c.51.51,1.18.77,1.86.77s1.34-.26,1.86-.77c1.03-1.03,1.03-2.69,0-3.71l-3.39-3.39h30.41c7.23,0,13.12-5.89,13.12-13.12v-15.74c0-7.23-5.89-13.12-13.12-13.12Z"/>
</svg>