<?xml version="1.0" encoding="UTF-8"?>
<svg id="katman_1" data-name="katman 1" xmlns="http://www.w3.org/2000/svg" viewBox="0 0 100 100">
  <defs>
    <style>
      .cls-1 {
        fill: #fa8112;
      }
    </style>
  </defs>
  <path class="cls-1" d="M57.87,45c.77,0,1.49-.3,2.03-.84l7.17-7.17c1.6-1.6,3.73-2.49,6-2.49h4.11l-2.97,2.97c-.54.54-.84,1.26-.84,2.03s.3,1.49.84,2.03,1.26.84,2.03.84,1.49-.3,2.03-.84l7.87-7.87c.27-.27.48-.58.62-.94.29-.7.29-1.5,0-2.2-.15-.36-.36-.67-.62-.94l-7.87-7.87c-1.12-1.12-2.94-1.12-4.06,0-.54.54-.84,1.26-.84,2.03s.3,1.49.84,2.03l2.97,2.97h-4.11c-3.8,0-7.38,1.48-10.07,4.17l-7.17,7.17c-.54.54-.84,1.27-.84,2.03,0,.77.3,1.49.84,2.03.54.54,1.26.84,2.03.84Z"/>
  <path class="cls-1" d="M86.15,66.33l-7.87-7.87c-1.12-1.12-2.94-1.12-4.06,0-.54.54-.84,1.26-.84,2.03s.3,1.49.84,2.03l2.97,2.97h-4.1c-2.27,0-4.4-.88-6-2.49l-30.08-30.08c-2.69-2.69-6.26-4.17-10.07-4.17h-11.04c-1.58,0-2.87,1.29-2.87,2.87s1.29,2.87,2.87,2.87h11.04c2.27,0,4.4.88,6,2.49l13,13.01-13.01,13.01c-1.6,1.6-3.73,2.49-6,2.49h-11.04c-1.58,0-2.87,1.29-2.87,2.87s1.29,2.87,2.87,2.87h11.04c3.8,0,7.38-1.48,10.06-4.17l13.01-13.01,13.01,13.01c2.69,2.69,6.26,4.17,10.06,4.17h4.1l-2.97,2.97c-.54.54-.84,1.26-.84,2.03s.3,1.49.84,2.03,1.26.84,2.03.84,1.49-.3,2.03-.84l7.87-7.87c.27-.27.48-.58.62-.94.29-.7.29-1.5,0-2.2-.15-.36-.36-.67-.62-.94Z"/>
</svg>