<?xml version="1.0" encoding="UTF-8"?>
<svg id="katman_1" data-name="katman 1" xmlns="http://www.w3.org/2000/svg" viewBox="0 0 100 100">
  <defs>
    <style>
      .cls-1 {
        fill: #faf3e1;
      }
    </style>
  </defs>
  <path class="cls-1" d="M68.42,23.87c-1.34-.93-3.04-1.14-4.57-.57l-17.01,6.38c-1.93.72-3.22,2.59-3.22,4.65v25.73c-1.43-.92-3.13-1.47-4.96-1.47-5.08,0-9.21,4.13-9.21,9.21s4.13,9.21,9.21,9.21,9.21-4.13,9.21-9.21c0-.32-.06-.63-.1-.94.04-.16.1-.31.1-.47v-18.37l19.46-7.3c1.93-.72,3.22-2.59,3.22-4.64v-8.12c0-1.63-.8-3.15-2.13-4.08Z"/>
</svg>