<?xml version="1.0" encoding="UTF-8"?>
<svg id="katman_1" data-name="katman 1" xmlns="http://www.w3.org/2000/svg" viewBox="0 0 100 100">
  <defs>
    <style>
      .cls-1 {
        fill: #faf3e1;
      }
    </style>
  </defs>
  <path class="cls-1" d="M44.29,56.16c-1.18,0-2.14.96-2.14,2.14v1.47c-1.45-.93-3.16-1.49-5-1.49-5.12,0-9.29,4.17-9.29,9.29s4.17,9.29,9.29,9.29,9.29-4.17,9.29-9.29c0-.33-.06-.63-.1-.95.04-.16.1-.31.1-.48v-7.84c0-1.18-.96-2.14-2.14-2.14Z"/>
  <path class="cls-1" d="M74.32,73.89l-27.98-26.23,19.69-7.39c1.94-.73,3.24-2.61,3.24-4.68v-8.18c0-1.64-.8-3.18-2.15-4.11-1.34-.93-3.07-1.15-4.6-.57l-17.14,6.43c-1.94.73-3.24,2.61-3.24,4.68v9.88l-13.53-12.69c-.86-.81-2.22-.77-3.03.1-.81.86-.76,2.22.1,3.03l45.71,42.86c.41.39.94.58,1.47.58.57,0,1.14-.23,1.56-.68.81-.86.76-2.22-.1-3.03Z"/>
</svg>